# xmcd CD database file
#
# Track frame offsets:
#	182
#	12640
#	31070
#	48557
#	61232
#	74585
#	88007
#	102207
#	114507
#	128575
#	140122
#	152142
#
# Disc length: 2139 seconds
#
# Revision: 1
# Processed by: cddbd v1.5.2PL0 Copyright (c) Steve Scherf et al.
# Submitted via: CDex 1.51
#
DISCID=a608590c
DTITLE=Greenhorns - To tentkrat v ctyricatom patom
DYEAR=1991
DGENRE=Country
TTITLE0=To tenkrat v ctyricatom patom
TTITLE1=Podzim hlasi prichod
TTITLE2=Battledress
TTITLE3=Pomerancovy expres (Orange Blossom Special)
TTITLE4=Veteran
TTITLE5=Uz slysim nebesky jezdce zas klit
TTITLE6=Zeleni muzici
TTITLE7=Ranni vlak (Morning Train)
TTITLE8=Pracoval jsem na trati (Workin' On The Railroad)
TTITLE9=Zacni hrat (City Jail)
TTITLE10=Carmen (Tonight Carmen)
TTITLE11=Nebij zenu v nedeli (Bad Woman)
EXTD=YEAR: 1991
EXTT0=
EXTT1=
EXTT2=
EXTT3=
EXTT4=
EXTT5=
EXTT6=
EXTT7=
EXTT8=
EXTT9=
EXTT10=
EXTT11=
PLAYORDER=
